name Run_400 05_newCOP3_v24.mot
datacolumns 19
datarows 93
range 1.983333 2.079167
DataType=double
version=3
OpenSimVersion=4.3-2021-08-27-4bc7ad9
endheader
time	R_ground_force_vx	R_ground_force_vy	R_ground_force_vz	R_ground_force_px	R_ground_force_py	R_ground_force_pz	L_ground_force_vx	L_ground_force_vy	L_ground_force_vz	L_ground_force_px	L_ground_force_py	L_ground_force_pz	R_ground_torque_x	R_ground_torque_y	R_ground_torque_z	L_ground_torque_x	L_ground_torque_y	L_ground_torque_z
1.983333	0	0	0	0	0	0	-214.158463	1445.522583	74.506805	1.083962	0	-0.351475	0	0	0	0	-1.197511	0
1.984375	0	0	0	0	0	0	-210.535172	1464.369263	75.43240400000001	1.080747	0	-0.351352	0	0	0	0	-1.291765	0
1.985417	0	0	0	0	0	0	-206.559586	1482.417603	75.988449	1.077504	0	-0.351292	0	0	0	0	-1.377272	0
1.986458	0	0	0	0	0	0	-202.267548	1499.637695	76.184448	1.074239	0	-0.351295	0	0	0	0	-1.454129	0
1.9875	0	0	0	0	0	0	-197.698959	1516.012329	76.036858	1.070956	0	-0.351356	0	0	0	0	-1.522504	0
1.988542	0	0	0	0	0	0	-192.897324	1531.535889	75.56871	1.06766	0	-0.351472	0	0	0	0	-1.582629	0
1.989583	0	0	0	0	0	0	-187.908981	1546.213135	74.809006	1.064356	0	-0.351636	0	0	0	0	-1.6348	0
1.990625	0	0	0	0	0	0	-182.782318	1560.058594	73.792068	1.061051	0	-0.351844	0	0	0	0	-1.679368	0
1.991667	0	0	0	0	0	0	-177.566742	1573.094971	72.556725	1.057749	0	-0.352087	0	0	0	0	-1.716735	0
1.992708	0	0	0	0	0	0	-172.311569	1585.352661	71.14537799999999	1.054456	0	-0.35236	0	0	0	0	-1.747349	0
1.99375	0	0	0	0	0	0	-167.064972	1596.867554	69.603065	1.051177	0	-0.352654	0	0	0	0	-1.771693	0
1.994792	0	0	0	0	0	0	-161.87265	1607.680786	67.97637899999999	1.047916	0	-0.352961	0	0	0	0	-1.790282	0
1.995833	0	0	0	0	0	0	-156.77681	1617.836914	66.312408	1.044679	0	-0.353274	0	0	0	0	-1.803651	0
1.996875	0	0	0	0	0	0	-151.815033	1627.383423	64.657707	1.041467	0	-0.353584	0	0	0	0	-1.812353	0
1.997917	0	0	0	0	0	0	-147.019302	1636.368652	63.057178	1.038285	0	-0.353883	0	0	0	0	-1.816945	0
1.998958	0	0	0	0	0	0	-142.415344	1644.841553	61.553135	1.035133	0	-0.354164	0	0	0	0	-1.817985	0
2	0	0	0	0	0	0	-138.021957	1652.849854	60.184341	1.032012	0	-0.354419	0	0	0	0	-1.81602	0
2.001042	0	0	0	0	0	0	-133.850845	1660.439697	58.985168	1.028922	0	-0.354643	0	0	0	0	-1.811584	0
2.002083	0	0	0	0	0	0	-129.906479	1667.654175	57.984886	1.025862	0	-0.35483	0	0	0	0	-1.805187	0
2.003125	0	0	0	0	0	0	-126.186378	1674.531982	57.20705	1.02283	0	-0.354974	0	0	0	0	-1.797315	0
2.004167	0	0	0	0	0	0	-122.681519	1681.107666	56.66906	1.019822	0	-0.355073	0	0	0	0	-1.788416	0
2.005208	0	0	0	0	0	0	-119.376976	1687.409424	56.38184	1.016836	0	-0.355124	0	0	0	0	-1.778903	0
2.00625	0	0	0	0	0	0	-116.252762	1693.459717	56.349697	1.013866	0	-0.355126	0	0	0	0	-1.769147	0
2.007292	0	0	0	0	0	0	-113.284714	1699.274292	56.570339	1.010909	0	-0.35508	0	0	0	0	-1.759475	0
2.008333	0	0	0	0	0	0	-110.44545	1704.861572	57.035042	1.00796	0	-0.354987	0	0	0	0	-1.750166	0
2.009375	0	0	0	0	0	0	-107.705368	1710.223633	57.728958	1.005014	0	-0.354851	0	0	0	0	-1.741454	0
2.010417	0	0	0	0	0	0	-105.033577	1715.355591	58.631603	1.002067	0	-0.354674	0	0	0	0	-1.733523	0
2.011458	0	0	0	0	0	0	-102.398735	1720.245972	59.71743	0.999115	0	-0.354462	0	0	0	0	-1.72651	0
2.0125	0	0	0	0	0	0	-99.769829	1724.878174	60.956547	0.996154	0	-0.35422	0	0	0	0	-1.720506	0
2.013542	0	0	0	0	0	0	-97.11679100000001	1729.230469	62.31551	0.993181	0	-0.353956	0	0	0	0	-1.715559	0
2.014583	0	0	0	0	0	0	-94.41102600000001	1733.277222	63.758194	0.990193	0	-0.353676	0	0	0	0	-1.711674	0
2.015625	0	0	0	0	0	0	-91.625793	1736.990234	65.246735	0.987188	0	-0.353387	0	0	0	0	-1.708816	0
2.016667	0	0	0	0	0	0	-88.73648799999999	1740.339233	66.74245500000001	0.984163	0	-0.353095	0	0	0	0	-1.706918	0
2.017708	0	0	0	0	0	0	-85.720879	1743.293701	68.206841	0.981117	0	-0.352809	0	0	0	0	-1.705879	0
2.01875	0	0	0	0	0	0	-82.559189	1745.823853	69.602478	0.97805	0	-0.352534	0	0	0	0	-1.705573	0
2.019792	0	0	0	0	0	0	-79.234268	1747.901245	70.893913	0.974959	0	-0.352277	0	0	0	0	-1.705849	0
2.020833	0	0	0	0	0	0	-75.731628	1749.500488	72.04851499999999	0.971845	0	-0.352042	0	0	0	0	-1.70654	0
2.021875	0	0	0	0	0	0	-72.03954299999999	1750.599365	73.037201	0.968706	0	-0.351835	0	0	0	0	-1.707461	0
2.022917	0	0	0	0	0	0	-68.14915499999999	1751.180054	73.835083	0.965543	0	-0.35166	0	0	0	0	-1.708421	0
2.023958	0	0	0	0	0	0	-64.054581	1751.229248	74.42197400000001	0.962355	0	-0.35152	0	0	0	0	-1.709219	0
2.025	0	0	0	0	0	0	-59.753033	1750.738892	74.78280599999999	0.9591420000000001	0	-0.351416	0	0	0	0	-1.709652	0
2.026042	0	0	0	0	0	0	-55.244911	1749.706055	74.90788999999999	0.955904	0	-0.351351	0	0	0	0	-1.709519	0
2.027083	0	0	0	0	0	0	-50.533932	1748.133179	74.79302199999999	0.952642	0	-0.351324	0	0	0	0	-1.708619	0
2.028125	0	0	0	0	0	0	-45.627132	1746.027954	74.439499	0.949356	0	-0.351334	0	0	0	0	-1.706758	0
2.029167	0	0	0	0	0	0	-40.534878	1743.402832	73.85392	0.946047	0	-0.35138	0	0	0	0	-1.703749	0
2.030208	0	0	0	0	0	0	-35.270733	1740.275024	73.047943	0.942716	0	-0.35146	0	0	0	0	-1.699412	0
2.03125	0	0	0	0	0	0	-29.851248	1736.665894	72.037842	0.939364	0	-0.351571	0	0	0	0	-1.693578	0
2.032292	0	0	0	0	0	0	-24.295612	1732.600464	70.844032	0.935992	0	-0.351708	0	0	0	0	-1.686087	0
2.033333	0	0	0	0	0	0	-18.62521	1728.106812	69.490425	0.932602	0	-0.351866	0	0	0	0	-1.676788	0
2.034375	0	0	0	0	0	0	-12.86305	1723.215698	68.003761	0.929196	0	-0.352042	0	0	0	0	-1.665541	0
2.035417	0	0	0	0	0	0	-7.033118	1717.959473	66.41284899999999	0.925776	0	-0.352228	0	0	0	0	-1.652212	0
2.036458	0	0	0	0	0	0	-1.159674	1712.371704	64.747795	0.922345	0	-0.352419	0	0	0	0	-1.636678	0
2.0375	0	0	0	0	0	0	4.733486	1706.486328	63.039192	0.9189040000000001	0	-0.35261	0	0	0	0	-1.61882	0
2.038542	0	0	0	0	0	0	10.623742	1700.336914	61.317337	0.915457	0	-0.352793	0	0	0	0	-1.598525	0
2.039583	0	0	0	0	0	0	16.490314	1693.956177	59.61142	0.912006	0	-0.352962	0	0	0	0	-1.575684	0
2.040625	0	0	0	0	0	0	22.314835	1687.374634	57.948822	0.908554	0	-0.353111	0	0	0	0	-1.55019	0
2.041667	0	0	0	0	0	0	28.081799	1680.620728	56.354424	0.905104	0	-0.353235	0	0	0	0	-1.52194	0
2.042708	0	0	0	0	0	0	33.778885	1673.719482	54.85001	0.901657	0	-0.353328	0	0	0	0	-1.490827	0
2.04375	0	0	0	0	0	0	39.397125	1666.692017	53.453758	0.898216	0	-0.353386	0	0	0	0	-1.456748	0
2.044792	0	0	0	0	0	0	44.930927	1659.55542	52.179848	0.894783	0	-0.353406	0	0	0	0	-1.419595	0
2.045833	0	0	0	0	0	0	50.377968	1652.321899	51.038151	0.89136	0	-0.353383	0	0	0	0	-1.37926	0
2.046875	0	0	0	0	0	0	55.738945	1644.998535	50.034061	0.887947	0	-0.353317	0	0	0	0	-1.335634	0
2.047917	0	0	0	0	0	0	61.017262	1637.587158	49.168434	0.8845460000000001	0	-0.353207	0	0	0	0	-1.288605	0
2.048958	0	0	0	0	0	0	66.218613	1630.084473	48.437656	0.8811560000000001	0	-0.353052	0	0	0	0	-1.238064	0
2.05	0	0	0	0	0	0	71.35054	1622.481812	47.833809	0.8777779999999999	0	-0.352854	0	0	0	0	-1.183899	0
2.051042	0	0	0	0	0	0	76.42195100000001	1614.765137	47.344982	0.87441	0	-0.352615	0	0	0	0	-1.126002	0
2.052083	0	0	0	0	0	0	81.44266500000001	1606.916138	46.955627	0.871051	0	-0.352338	0	0	0	0	-1.064267	0
2.053125	0	0	0	0	0	0	86.422928	1598.912109	46.647072	0.8677	0	-0.352026	0	0	0	0	-0.998597	0
2.054167	0	0	0	0	0	0	91.37303199999999	1590.726685	46.398045	0.864354	0	-0.351685	0	0	0	0	-0.9288999999999999	0
2.055208	0	0	0	0	0	0	96.302879	1582.330322	46.185295	0.861012	0	-0.35132	0	0	0	0	-0.855097	0
2.05625	0	0	0	0	0	0	101.221695	1573.691528	45.984257	0.85767	0	-0.350936	0	0	0	0	-0.77712	0
2.057292	0	0	0	0	0	0	106.137726	1564.777344	45.769718	0.854325	0	-0.350539	0	0	0	0	-0.694919	0
2.058333	0	0	0	0	0	0	111.057991	1555.553833	45.516502	0.850974	0	-0.350135	0	0	0	0	-0.6084619999999999	0
2.059375	0	0	0	0	0	0	115.988091	1545.988037	45.200157	0.847615	0	-0.34973	0	0	0	0	-0.517738	0
2.060417	0	0	0	0	0	0	120.932053	1536.047363	44.797592	0.844242	0	-0.34933	0	0	0	0	-0.42276	0
2.061458	0	0	0	0	0	0	125.892189	1525.70166	44.28767	0.840854	0	-0.34894	0	0	0	0	-0.323568	0
2.0625	0	0	0	0	0	0	130.868988	1514.923096	43.651768	0.8374470000000001	0	-0.348565	0	0	0	0	-0.220231	0
2.063542	0	0	0	0	0	0	135.861053	1503.6875	42.874222	0.834019	0	-0.348211	0	0	0	0	-0.112846	0
2.064583	0	0	0	0	0	0	140.86496	1491.974487	41.942726	0.830566	0	-0.347879	0	0	0	0	-0.001543	0
2.065625	0	0	0	0	0	0	145.875275	1479.768066	40.848618	0.827088	0	-0.347575	0	0	0	-0	0.113516	-0
2.066667	0	0	0	0	0	0	150.88443	1467.057129	39.587074	0.823582	0	-0.347299	0	0	0	-0	0.232134	-0
2.067708	0	0	0	0	0	0	155.882813	1453.835571	38.157192	0.820049	0	-0.347053	0	0	0	-0	0.354082	-0
2.06875	0	0	0	0	0	0	160.858688	1440.102173	36.562004	0.816487	0	-0.346837	0	0	0	-0	0.4791	-0
2.069792	0	0	0	0	0	0	165.798309	1425.860962	34.808334	0.812899	0	-0.346652	0	0	0	-0	0.606892	-0
2.070833	0	0	0	0	0	0	170.686035	1411.120483	32.906631	0.809285	0	-0.346495	0	0	0	-0	0.737133	-0
2.071875	0	0	0	0	0	0	175.504547	1395.893677	30.870659	0.805647	0	-0.346365	0	0	0	-0	0.869471	-0
2.072917	0	0	0	0	0	0	180.235062	1380.19751	28.717136	0.80199	0	-0.346259	0	0	0	-0	1.003524	-0
2.073958	0	0	0	0	0	0	184.857727	1364.052368	26.4653	0.7983170000000001	0	-0.346173	0	0	0	-0	1.138888	-0
2.075	0	0	0	0	0	0	189.35202	1347.480957	24.136427	0.794632	0	-0.346104	0	0	0	-0	1.275138	-0
2.076042	0	0	0	0	0	0	193.697205	1330.508423	21.753304	0.79094	0	-0.346046	0	0	0	-0	1.411829	-0
2.077083	0	0	0	0	0	0	197.872894	1313.161011	19.33968	0.787246	0	-0.345994	0	0	0	-0	1.548506	-0
2.078125	0	0	0	0	0	0	201.859619	1295.465698	16.919701	0.783555	0	-0.345945	0	0	0	-0	1.684699	-0
2.079167	0	0	0	0	0	0	205.639374	1277.449463	14.517356	0.779873	0	-0.345891	0	0	0	-0	1.819934	-0
